<mxfile host="Electron" agent="Mozilla/5.0 (Macintosh; Intel Mac OS X 10_15_7) AppleWebKit/537.36 (KHTML, like Gecko) draw.io/24.7.17 Chrome/128.0.6613.36 Electron/32.0.1 Safari/537.36" version="24.7.17">
  <diagram name="Page-1" id="1AF53BzrMlz5w-uG3z8q">
    <mxGraphModel dx="2288" dy="1033" grid="1" gridSize="10" guides="1" tooltips="1" connect="1" arrows="1" fold="1" page="1" pageScale="1" pageWidth="827" pageHeight="1169" math="0" shadow="0">
      <root>
        <mxCell id="0" />
        <mxCell id="1" parent="0" />
        <mxCell id="jtV1YDejPFFgnhrzzbx9-8" value="" style="edgeStyle=orthogonalEdgeStyle;rounded=0;orthogonalLoop=1;jettySize=auto;html=1;endArrow=none;endFill=0;" edge="1" parent="1" source="jtV1YDejPFFgnhrzzbx9-1" target="jtV1YDejPFFgnhrzzbx9-7">
          <mxGeometry relative="1" as="geometry" />
        </mxCell>
        <mxCell id="jtV1YDejPFFgnhrzzbx9-19" value="" style="rounded=0;orthogonalLoop=1;jettySize=auto;html=1;endArrow=none;endFill=0;" edge="1" parent="1" source="jtV1YDejPFFgnhrzzbx9-1" target="jtV1YDejPFFgnhrzzbx9-18">
          <mxGeometry relative="1" as="geometry" />
        </mxCell>
        <mxCell id="jtV1YDejPFFgnhrzzbx9-22" value="" style="edgeStyle=orthogonalEdgeStyle;rounded=0;orthogonalLoop=1;jettySize=auto;html=1;endArrow=none;endFill=0;shape=link;" edge="1" parent="1" source="jtV1YDejPFFgnhrzzbx9-1" target="jtV1YDejPFFgnhrzzbx9-21">
          <mxGeometry relative="1" as="geometry" />
        </mxCell>
        <mxCell id="jtV1YDejPFFgnhrzzbx9-1" value="Учесник&amp;nbsp;" style="whiteSpace=wrap;html=1;aspect=fixed;" vertex="1" parent="1">
          <mxGeometry x="220" y="260" width="85" height="85" as="geometry" />
        </mxCell>
        <mxCell id="jtV1YDejPFFgnhrzzbx9-7" value="Држава" style="ellipse;whiteSpace=wrap;html=1;" vertex="1" parent="1">
          <mxGeometry x="235" y="120" width="70" height="40" as="geometry" />
        </mxCell>
        <mxCell id="jtV1YDejPFFgnhrzzbx9-10" value="" style="edgeStyle=orthogonalEdgeStyle;rounded=0;orthogonalLoop=1;jettySize=auto;html=1;endArrow=none;endFill=0;exitX=1;exitY=0;exitDx=0;exitDy=0;" edge="1" target="jtV1YDejPFFgnhrzzbx9-11" parent="1" source="jtV1YDejPFFgnhrzzbx9-1">
          <mxGeometry relative="1" as="geometry">
            <mxPoint x="410" y="240" as="sourcePoint" />
          </mxGeometry>
        </mxCell>
        <mxCell id="jtV1YDejPFFgnhrzzbx9-11" value="Пол" style="ellipse;whiteSpace=wrap;html=1;" vertex="1" parent="1">
          <mxGeometry x="330" y="120" width="90" height="50" as="geometry" />
        </mxCell>
        <mxCell id="jtV1YDejPFFgnhrzzbx9-12" value="" style="edgeStyle=orthogonalEdgeStyle;rounded=0;orthogonalLoop=1;jettySize=auto;html=1;endArrow=none;endFill=0;exitX=1;exitY=0.25;exitDx=0;exitDy=0;entryX=0;entryY=0.5;entryDx=0;entryDy=0;" edge="1" target="jtV1YDejPFFgnhrzzbx9-13" parent="1" source="jtV1YDejPFFgnhrzzbx9-1">
          <mxGeometry relative="1" as="geometry">
            <mxPoint x="680" y="215" as="sourcePoint" />
          </mxGeometry>
        </mxCell>
        <mxCell id="jtV1YDejPFFgnhrzzbx9-13" value="Роденден" style="ellipse;whiteSpace=wrap;html=1;" vertex="1" parent="1">
          <mxGeometry x="430" y="220" width="90" height="40" as="geometry" />
        </mxCell>
        <mxCell id="jtV1YDejPFFgnhrzzbx9-14" value="" style="edgeStyle=orthogonalEdgeStyle;rounded=0;orthogonalLoop=1;jettySize=auto;html=1;endArrow=none;endFill=0;exitX=0.25;exitY=0;exitDx=0;exitDy=0;" edge="1" target="jtV1YDejPFFgnhrzzbx9-15" parent="1" source="jtV1YDejPFFgnhrzzbx9-1">
          <mxGeometry relative="1" as="geometry">
            <mxPoint x="120" y="310" as="sourcePoint" />
          </mxGeometry>
        </mxCell>
        <mxCell id="jtV1YDejPFFgnhrzzbx9-15" value="Презиме&amp;nbsp;" style="ellipse;whiteSpace=wrap;html=1;" vertex="1" parent="1">
          <mxGeometry x="90" y="180" width="70" height="40" as="geometry" />
        </mxCell>
        <mxCell id="jtV1YDejPFFgnhrzzbx9-16" value="" style="rounded=0;orthogonalLoop=1;jettySize=auto;html=1;endArrow=none;endFill=0;exitX=-0.037;exitY=0.369;exitDx=0;exitDy=0;exitPerimeter=0;" edge="1" target="jtV1YDejPFFgnhrzzbx9-17" parent="1" source="jtV1YDejPFFgnhrzzbx9-1">
          <mxGeometry relative="1" as="geometry">
            <mxPoint x="170" y="510" as="sourcePoint" />
          </mxGeometry>
        </mxCell>
        <mxCell id="jtV1YDejPFFgnhrzzbx9-17" value="Име" style="ellipse;whiteSpace=wrap;html=1;" vertex="1" parent="1">
          <mxGeometry x="10" y="275" width="80" height="45" as="geometry" />
        </mxCell>
        <mxCell id="jtV1YDejPFFgnhrzzbx9-18" value="&lt;u&gt;број_пасош&lt;/u&gt;" style="ellipse;whiteSpace=wrap;html=1;" vertex="1" parent="1">
          <mxGeometry x="400" y="275" width="90" height="50" as="geometry" />
        </mxCell>
        <mxCell id="jtV1YDejPFFgnhrzzbx9-26" value="" style="edgeStyle=orthogonalEdgeStyle;rounded=0;orthogonalLoop=1;jettySize=auto;html=1;endArrow=none;endFill=0;" edge="1" parent="1" source="jtV1YDejPFFgnhrzzbx9-21" target="jtV1YDejPFFgnhrzzbx9-25">
          <mxGeometry relative="1" as="geometry" />
        </mxCell>
        <mxCell id="jtV1YDejPFFgnhrzzbx9-39" value="" style="edgeStyle=orthogonalEdgeStyle;rounded=0;orthogonalLoop=1;jettySize=auto;html=1;endArrow=none;endFill=0;" edge="1" parent="1" source="jtV1YDejPFFgnhrzzbx9-21" target="jtV1YDejPFFgnhrzzbx9-38">
          <mxGeometry relative="1" as="geometry" />
        </mxCell>
        <mxCell id="jtV1YDejPFFgnhrzzbx9-21" value="d" style="ellipse;whiteSpace=wrap;html=1;" vertex="1" parent="1">
          <mxGeometry x="247.5" y="420" width="30" height="30" as="geometry" />
        </mxCell>
        <mxCell id="jtV1YDejPFFgnhrzzbx9-28" value="" style="rounded=0;orthogonalLoop=1;jettySize=auto;html=1;endArrow=none;endFill=0;" edge="1" parent="1" source="jtV1YDejPFFgnhrzzbx9-25" target="jtV1YDejPFFgnhrzzbx9-27">
          <mxGeometry relative="1" as="geometry" />
        </mxCell>
        <mxCell id="jtV1YDejPFFgnhrzzbx9-31" value="" style="rounded=0;orthogonalLoop=1;jettySize=auto;html=1;endArrow=none;endFill=0;" edge="1" parent="1" source="jtV1YDejPFFgnhrzzbx9-25" target="jtV1YDejPFFgnhrzzbx9-30">
          <mxGeometry relative="1" as="geometry" />
        </mxCell>
        <mxCell id="jtV1YDejPFFgnhrzzbx9-25" value="o" style="ellipse;whiteSpace=wrap;html=1;" vertex="1" parent="1">
          <mxGeometry x="145" y="420" width="30" height="30" as="geometry" />
        </mxCell>
        <mxCell id="jtV1YDejPFFgnhrzzbx9-34" style="edgeStyle=orthogonalEdgeStyle;rounded=0;orthogonalLoop=1;jettySize=auto;html=1;exitX=0;exitY=0.5;exitDx=0;exitDy=0;entryX=1;entryY=0.5;entryDx=0;entryDy=0;endArrow=none;endFill=0;" edge="1" parent="1" source="jtV1YDejPFFgnhrzzbx9-27" target="jtV1YDejPFFgnhrzzbx9-32">
          <mxGeometry relative="1" as="geometry" />
        </mxCell>
        <mxCell id="jtV1YDejPFFgnhrzzbx9-37" value="M" style="edgeLabel;html=1;align=center;verticalAlign=middle;resizable=0;points=[];" vertex="1" connectable="0" parent="jtV1YDejPFFgnhrzzbx9-34">
          <mxGeometry x="-0.7" y="1" relative="1" as="geometry">
            <mxPoint as="offset" />
          </mxGeometry>
        </mxCell>
        <mxCell id="jtV1YDejPFFgnhrzzbx9-57" value="" style="edgeStyle=orthogonalEdgeStyle;rounded=0;orthogonalLoop=1;jettySize=auto;html=1;endArrow=none;endFill=0;" edge="1" parent="1" source="jtV1YDejPFFgnhrzzbx9-27" target="jtV1YDejPFFgnhrzzbx9-56">
          <mxGeometry relative="1" as="geometry" />
        </mxCell>
        <mxCell id="jtV1YDejPFFgnhrzzbx9-87" value="" style="rounded=0;orthogonalLoop=1;jettySize=auto;html=1;endArrow=none;endFill=0;entryX=0.5;entryY=0;entryDx=0;entryDy=0;" edge="1" parent="1" source="jtV1YDejPFFgnhrzzbx9-27" target="jtV1YDejPFFgnhrzzbx9-90">
          <mxGeometry relative="1" as="geometry">
            <mxPoint x="340" y="790" as="targetPoint" />
          </mxGeometry>
        </mxCell>
        <mxCell id="jtV1YDejPFFgnhrzzbx9-89" value="" style="rounded=0;orthogonalLoop=1;jettySize=auto;html=1;endArrow=none;endFill=0;entryX=0.5;entryY=0;entryDx=0;entryDy=0;" edge="1" parent="1" source="jtV1YDejPFFgnhrzzbx9-27" target="jtV1YDejPFFgnhrzzbx9-88">
          <mxGeometry relative="1" as="geometry">
            <mxPoint x="420" y="800" as="targetPoint" />
          </mxGeometry>
        </mxCell>
        <mxCell id="jtV1YDejPFFgnhrzzbx9-124" value="" style="rounded=0;orthogonalLoop=1;jettySize=auto;html=1;shape=link;" edge="1" parent="1" source="jtV1YDejPFFgnhrzzbx9-27" target="jtV1YDejPFFgnhrzzbx9-123">
          <mxGeometry relative="1" as="geometry" />
        </mxCell>
        <mxCell id="jtV1YDejPFFgnhrzzbx9-135" value="" style="rounded=0;orthogonalLoop=1;jettySize=auto;html=1;endArrow=none;endFill=0;shape=link;" edge="1" parent="1" source="jtV1YDejPFFgnhrzzbx9-27">
          <mxGeometry relative="1" as="geometry">
            <mxPoint x="730" y="713" as="targetPoint" />
          </mxGeometry>
        </mxCell>
        <mxCell id="jtV1YDejPFFgnhrzzbx9-156" value="" style="rounded=0;orthogonalLoop=1;jettySize=auto;html=1;endArrow=none;endFill=0;" edge="1" parent="1" source="jtV1YDejPFFgnhrzzbx9-27" target="jtV1YDejPFFgnhrzzbx9-157">
          <mxGeometry relative="1" as="geometry">
            <mxPoint x="510" y="530" as="targetPoint" />
          </mxGeometry>
        </mxCell>
        <mxCell id="jtV1YDejPFFgnhrzzbx9-27" value="Играч" style="whiteSpace=wrap;html=1;" vertex="1" parent="1">
          <mxGeometry x="330" y="540" width="120" height="60" as="geometry" />
        </mxCell>
        <mxCell id="jtV1YDejPFFgnhrzzbx9-33" value="" style="edgeStyle=orthogonalEdgeStyle;rounded=0;orthogonalLoop=1;jettySize=auto;html=1;endArrow=none;endFill=0;" edge="1" parent="1" source="jtV1YDejPFFgnhrzzbx9-30" target="jtV1YDejPFFgnhrzzbx9-32">
          <mxGeometry relative="1" as="geometry" />
        </mxCell>
        <mxCell id="jtV1YDejPFFgnhrzzbx9-59" value="" style="edgeStyle=orthogonalEdgeStyle;rounded=0;orthogonalLoop=1;jettySize=auto;html=1;endArrow=none;endFill=0;" edge="1" parent="1" source="jtV1YDejPFFgnhrzzbx9-30" target="jtV1YDejPFFgnhrzzbx9-58">
          <mxGeometry relative="1" as="geometry" />
        </mxCell>
        <mxCell id="jtV1YDejPFFgnhrzzbx9-72" value="" style="edgeStyle=orthogonalEdgeStyle;rounded=0;orthogonalLoop=1;jettySize=auto;html=1;strokeWidth=1;endArrow=none;endFill=0;" edge="1" parent="1" source="jtV1YDejPFFgnhrzzbx9-30">
          <mxGeometry relative="1" as="geometry">
            <mxPoint x="-149.9599999999998" y="860.0400000000002" as="targetPoint" />
          </mxGeometry>
        </mxCell>
        <mxCell id="jtV1YDejPFFgnhrzzbx9-30" value="Тренер" style="whiteSpace=wrap;html=1;" vertex="1" parent="1">
          <mxGeometry x="-90" y="540" width="120" height="60" as="geometry" />
        </mxCell>
        <mxCell id="jtV1YDejPFFgnhrzzbx9-32" value="Тренира" style="rhombus;whiteSpace=wrap;html=1;" vertex="1" parent="1">
          <mxGeometry x="130" y="530" width="80" height="80" as="geometry" />
        </mxCell>
        <mxCell id="jtV1YDejPFFgnhrzzbx9-35" value="N" style="text;html=1;align=center;verticalAlign=middle;resizable=0;points=[];autosize=1;strokeColor=none;fillColor=none;" vertex="1" parent="1">
          <mxGeometry x="35" y="550" width="30" height="30" as="geometry" />
        </mxCell>
        <mxCell id="jtV1YDejPFFgnhrzzbx9-41" value="" style="edgeStyle=orthogonalEdgeStyle;rounded=0;orthogonalLoop=1;jettySize=auto;html=1;endArrow=none;endFill=0;" edge="1" parent="1" source="jtV1YDejPFFgnhrzzbx9-38" target="jtV1YDejPFFgnhrzzbx9-40">
          <mxGeometry relative="1" as="geometry" />
        </mxCell>
        <mxCell id="jtV1YDejPFFgnhrzzbx9-43" value="" style="rounded=0;orthogonalLoop=1;jettySize=auto;html=1;endArrow=none;endFill=0;" edge="1" parent="1" source="jtV1YDejPFFgnhrzzbx9-38" target="jtV1YDejPFFgnhrzzbx9-42">
          <mxGeometry relative="1" as="geometry" />
        </mxCell>
        <mxCell id="jtV1YDejPFFgnhrzzbx9-38" value="Судија" style="whiteSpace=wrap;html=1;" vertex="1" parent="1">
          <mxGeometry x="470" y="405" width="120" height="60" as="geometry" />
        </mxCell>
        <mxCell id="jtV1YDejPFFgnhrzzbx9-40" value="Искуство" style="ellipse;whiteSpace=wrap;html=1;" vertex="1" parent="1">
          <mxGeometry x="495" y="345" width="80" height="35" as="geometry" />
        </mxCell>
        <mxCell id="jtV1YDejPFFgnhrzzbx9-48" value="" style="rounded=0;orthogonalLoop=1;jettySize=auto;html=1;endArrow=none;endFill=0;shape=link;" edge="1" parent="1" source="jtV1YDejPFFgnhrzzbx9-42" target="jtV1YDejPFFgnhrzzbx9-47">
          <mxGeometry relative="1" as="geometry" />
        </mxCell>
        <mxCell id="jtV1YDejPFFgnhrzzbx9-42" value="sudi" style="rhombus;whiteSpace=wrap;html=1;" vertex="1" parent="1">
          <mxGeometry x="989.5" y="345" width="80" height="40" as="geometry" />
        </mxCell>
        <mxCell id="jtV1YDejPFFgnhrzzbx9-44" value="суди" style="rhombus;whiteSpace=wrap;html=1;" vertex="1" parent="1">
          <mxGeometry x="997" y="350" width="65" height="30" as="geometry" />
        </mxCell>
        <mxCell id="jtV1YDejPFFgnhrzzbx9-51" value="" style="rounded=0;orthogonalLoop=1;jettySize=auto;html=1;endArrow=none;endFill=0;" edge="1" parent="1" source="jtV1YDejPFFgnhrzzbx9-47" target="jtV1YDejPFFgnhrzzbx9-50">
          <mxGeometry relative="1" as="geometry" />
        </mxCell>
        <mxCell id="jtV1YDejPFFgnhrzzbx9-53" value="" style="rounded=0;orthogonalLoop=1;jettySize=auto;html=1;endArrow=none;endFill=0;" edge="1" parent="1" source="jtV1YDejPFFgnhrzzbx9-47" target="jtV1YDejPFFgnhrzzbx9-52">
          <mxGeometry relative="1" as="geometry" />
        </mxCell>
        <mxCell id="jtV1YDejPFFgnhrzzbx9-55" value="" style="edgeStyle=orthogonalEdgeStyle;rounded=0;orthogonalLoop=1;jettySize=auto;html=1;endArrow=none;endFill=0;" edge="1" parent="1" source="jtV1YDejPFFgnhrzzbx9-47">
          <mxGeometry relative="1" as="geometry">
            <mxPoint x="1540" y="440" as="targetPoint" />
            <Array as="points">
              <mxPoint x="1550" y="440" />
            </Array>
          </mxGeometry>
        </mxCell>
        <mxCell id="jtV1YDejPFFgnhrzzbx9-197" value="" style="rounded=0;orthogonalLoop=1;jettySize=auto;html=1;shape=link;" edge="1" parent="1" source="jtV1YDejPFFgnhrzzbx9-47" target="jtV1YDejPFFgnhrzzbx9-196">
          <mxGeometry relative="1" as="geometry" />
        </mxCell>
        <mxCell id="jtV1YDejPFFgnhrzzbx9-199" value="1" style="edgeLabel;html=1;align=center;verticalAlign=middle;resizable=0;points=[];" vertex="1" connectable="0" parent="jtV1YDejPFFgnhrzzbx9-197">
          <mxGeometry x="0.7224" relative="1" as="geometry">
            <mxPoint x="1" y="14" as="offset" />
          </mxGeometry>
        </mxCell>
        <mxCell id="jtV1YDejPFFgnhrzzbx9-47" value="" style="whiteSpace=wrap;html=1;" vertex="1" parent="1">
          <mxGeometry x="1490" y="492.5" width="120" height="60" as="geometry" />
        </mxCell>
        <mxCell id="jtV1YDejPFFgnhrzzbx9-49" value="Натпревар" style="rounded=0;whiteSpace=wrap;html=1;" vertex="1" parent="1">
          <mxGeometry x="1500" y="501.25" width="100" height="42.5" as="geometry" />
        </mxCell>
        <mxCell id="jtV1YDejPFFgnhrzzbx9-50" value="Резултат" style="ellipse;whiteSpace=wrap;html=1;" vertex="1" parent="1">
          <mxGeometry x="1410" y="388.75" width="80" height="42.5" as="geometry" />
        </mxCell>
        <mxCell id="jtV1YDejPFFgnhrzzbx9-52" value="&lt;u&gt;Датум_до&lt;/u&gt;" style="ellipse;whiteSpace=wrap;html=1;" vertex="1" parent="1">
          <mxGeometry x="1620" y="420" width="80" height="37.5" as="geometry" />
        </mxCell>
        <mxCell id="jtV1YDejPFFgnhrzzbx9-54" value="&lt;u&gt;датум_од&lt;/u&gt;" style="ellipse;whiteSpace=wrap;html=1;" vertex="1" parent="1">
          <mxGeometry x="1500" y="400" width="80" height="37.5" as="geometry" />
        </mxCell>
        <mxCell id="jtV1YDejPFFgnhrzzbx9-56" value="почетна_год" style="ellipse;whiteSpace=wrap;html=1;" vertex="1" parent="1">
          <mxGeometry x="350" y="480" width="80" height="33.75" as="geometry" />
        </mxCell>
        <mxCell id="jtV1YDejPFFgnhrzzbx9-63" value="" style="edgeStyle=orthogonalEdgeStyle;rounded=0;orthogonalLoop=1;jettySize=auto;html=1;endArrow=none;endFill=0;shape=link;" edge="1" parent="1" source="jtV1YDejPFFgnhrzzbx9-58" target="jtV1YDejPFFgnhrzzbx9-62">
          <mxGeometry relative="1" as="geometry" />
        </mxCell>
        <mxCell id="jtV1YDejPFFgnhrzzbx9-58" value="" style="rhombus;whiteSpace=wrap;html=1;" vertex="1" parent="1">
          <mxGeometry x="-70" y="670" width="80" height="40" as="geometry" />
        </mxCell>
        <mxCell id="jtV1YDejPFFgnhrzzbx9-60" value="има" style="rhombus;whiteSpace=wrap;html=1;" vertex="1" parent="1">
          <mxGeometry x="-60" y="675" width="60" height="30" as="geometry" />
        </mxCell>
        <mxCell id="jtV1YDejPFFgnhrzzbx9-61" value="1" style="text;html=1;align=center;verticalAlign=middle;resizable=0;points=[];autosize=1;strokeColor=none;fillColor=none;" vertex="1" parent="1">
          <mxGeometry x="-35" y="598" width="30" height="30" as="geometry" />
        </mxCell>
        <mxCell id="jtV1YDejPFFgnhrzzbx9-67" value="" style="rounded=0;orthogonalLoop=1;jettySize=auto;html=1;endArrow=none;endFill=0;shape=link;" edge="1" parent="1" source="jtV1YDejPFFgnhrzzbx9-62" target="jtV1YDejPFFgnhrzzbx9-66">
          <mxGeometry relative="1" as="geometry" />
        </mxCell>
        <mxCell id="jtV1YDejPFFgnhrzzbx9-62" value="" style="whiteSpace=wrap;html=1;" vertex="1" parent="1">
          <mxGeometry x="-90" y="780" width="120" height="60" as="geometry" />
        </mxCell>
        <mxCell id="jtV1YDejPFFgnhrzzbx9-64" value="тренинг_историја" style="whiteSpace=wrap;html=1;" vertex="1" parent="1">
          <mxGeometry x="-80" y="785" width="100" height="50" as="geometry" />
        </mxCell>
        <mxCell id="jtV1YDejPFFgnhrzzbx9-65" value="1" style="text;html=1;align=center;verticalAlign=middle;resizable=0;points=[];autosize=1;strokeColor=none;fillColor=none;" vertex="1" parent="1">
          <mxGeometry x="-35" y="728" width="30" height="30" as="geometry" />
        </mxCell>
        <mxCell id="jtV1YDejPFFgnhrzzbx9-69" style="rounded=0;orthogonalLoop=1;jettySize=auto;html=1;entryX=0;entryY=1;entryDx=0;entryDy=0;strokeWidth=1;endArrow=none;endFill=0;" edge="1" parent="1" source="jtV1YDejPFFgnhrzzbx9-66" target="jtV1YDejPFFgnhrzzbx9-27">
          <mxGeometry relative="1" as="geometry" />
        </mxCell>
        <mxCell id="jtV1YDejPFFgnhrzzbx9-66" value="Тренира" style="rhombus;whiteSpace=wrap;html=1;" vertex="1" parent="1">
          <mxGeometry x="110" y="670" width="80" height="40" as="geometry" />
        </mxCell>
        <mxCell id="jtV1YDejPFFgnhrzzbx9-68" value="N" style="text;html=1;align=center;verticalAlign=middle;resizable=0;points=[];autosize=1;strokeColor=none;fillColor=none;" vertex="1" parent="1">
          <mxGeometry x="25" y="758" width="30" height="30" as="geometry" />
        </mxCell>
        <mxCell id="jtV1YDejPFFgnhrzzbx9-70" value="M" style="text;html=1;align=center;verticalAlign=middle;resizable=0;points=[];autosize=1;strokeColor=none;fillColor=none;" vertex="1" parent="1">
          <mxGeometry x="305" y="600" width="30" height="30" as="geometry" />
        </mxCell>
        <mxCell id="jtV1YDejPFFgnhrzzbx9-76" value="" style="rounded=0;orthogonalLoop=1;jettySize=auto;html=1;shape=link;" edge="1" parent="1" source="jtV1YDejPFFgnhrzzbx9-73" target="jtV1YDejPFFgnhrzzbx9-75">
          <mxGeometry relative="1" as="geometry" />
        </mxCell>
        <mxCell id="jtV1YDejPFFgnhrzzbx9-73" value="" style="rhombus;whiteSpace=wrap;html=1;" vertex="1" parent="1">
          <mxGeometry x="-190" y="860" width="80" height="50" as="geometry" />
        </mxCell>
        <mxCell id="jtV1YDejPFFgnhrzzbx9-74" value="Тренирал" style="rhombus;whiteSpace=wrap;html=1;" vertex="1" parent="1">
          <mxGeometry x="-185" y="865" width="70" height="40" as="geometry" />
        </mxCell>
        <mxCell id="jtV1YDejPFFgnhrzzbx9-80" value="" style="rounded=0;orthogonalLoop=1;jettySize=auto;html=1;endArrow=none;endFill=0;entryX=0.5;entryY=1;entryDx=0;entryDy=0;shape=link;" edge="1" parent="1" source="jtV1YDejPFFgnhrzzbx9-75" target="jtV1YDejPFFgnhrzzbx9-81">
          <mxGeometry relative="1" as="geometry">
            <mxPoint x="105" y="1015" as="targetPoint" />
          </mxGeometry>
        </mxCell>
        <mxCell id="jtV1YDejPFFgnhrzzbx9-108" value="" style="edgeStyle=orthogonalEdgeStyle;rounded=0;orthogonalLoop=1;jettySize=auto;html=1;endArrow=none;endFill=0;" edge="1" parent="1" source="jtV1YDejPFFgnhrzzbx9-75" target="jtV1YDejPFFgnhrzzbx9-107">
          <mxGeometry relative="1" as="geometry" />
        </mxCell>
        <mxCell id="jtV1YDejPFFgnhrzzbx9-75" value="" style="whiteSpace=wrap;html=1;" vertex="1" parent="1">
          <mxGeometry x="-95" y="985" width="120" height="60" as="geometry" />
        </mxCell>
        <mxCell id="jtV1YDejPFFgnhrzzbx9-119" value="" style="rounded=0;orthogonalLoop=1;jettySize=auto;html=1;exitX=1;exitY=1;exitDx=0;exitDy=0;shape=link;" edge="1" parent="1" source="jtV1YDejPFFgnhrzzbx9-75" target="jtV1YDejPFFgnhrzzbx9-118">
          <mxGeometry relative="1" as="geometry" />
        </mxCell>
        <mxCell id="jtV1YDejPFFgnhrzzbx9-77" value="Тренинг" style="whiteSpace=wrap;html=1;" vertex="1" parent="1">
          <mxGeometry x="-80" y="992.5" width="95" height="47.5" as="geometry" />
        </mxCell>
        <mxCell id="jtV1YDejPFFgnhrzzbx9-78" value="N" style="text;html=1;align=center;verticalAlign=middle;resizable=0;points=[];autosize=1;strokeColor=none;fillColor=none;" vertex="1" parent="1">
          <mxGeometry x="-65" y="950" width="30" height="30" as="geometry" />
        </mxCell>
        <mxCell id="jtV1YDejPFFgnhrzzbx9-83" style="rounded=0;orthogonalLoop=1;jettySize=auto;html=1;endArrow=none;endFill=0;" edge="1" parent="1" source="jtV1YDejPFFgnhrzzbx9-81" target="jtV1YDejPFFgnhrzzbx9-27">
          <mxGeometry relative="1" as="geometry" />
        </mxCell>
        <mxCell id="jtV1YDejPFFgnhrzzbx9-81" value="" style="rhombus;whiteSpace=wrap;html=1;" vertex="1" parent="1">
          <mxGeometry x="120" y="825" width="80" height="40" as="geometry" />
        </mxCell>
        <mxCell id="jtV1YDejPFFgnhrzzbx9-82" value="Играл" style="rhombus;whiteSpace=wrap;html=1;" vertex="1" parent="1">
          <mxGeometry x="125" y="832.5" width="70" height="25" as="geometry" />
        </mxCell>
        <mxCell id="jtV1YDejPFFgnhrzzbx9-84" value="1" style="text;html=1;align=center;verticalAlign=middle;resizable=0;points=[];autosize=1;strokeColor=none;fillColor=none;" vertex="1" parent="1">
          <mxGeometry x="350" y="610" width="30" height="30" as="geometry" />
        </mxCell>
        <mxCell id="jtV1YDejPFFgnhrzzbx9-85" value="N" style="text;html=1;align=center;verticalAlign=middle;resizable=0;points=[];autosize=1;strokeColor=none;fillColor=none;" vertex="1" parent="1">
          <mxGeometry x="30" y="970" width="30" height="30" as="geometry" />
        </mxCell>
        <mxCell id="jtV1YDejPFFgnhrzzbx9-97" style="edgeStyle=orthogonalEdgeStyle;rounded=0;orthogonalLoop=1;jettySize=auto;html=1;entryX=0.75;entryY=0;entryDx=0;entryDy=0;shape=link;" edge="1" parent="1" source="jtV1YDejPFFgnhrzzbx9-88" target="jtV1YDejPFFgnhrzzbx9-95">
          <mxGeometry relative="1" as="geometry" />
        </mxCell>
        <mxCell id="jtV1YDejPFFgnhrzzbx9-88" value="" style="rhombus;whiteSpace=wrap;html=1;" vertex="1" parent="1">
          <mxGeometry x="380" y="876.25" width="80" height="37.5" as="geometry" />
        </mxCell>
        <mxCell id="jtV1YDejPFFgnhrzzbx9-96" value="" style="edgeStyle=orthogonalEdgeStyle;rounded=0;orthogonalLoop=1;jettySize=auto;html=1;shape=link;" edge="1" parent="1" source="jtV1YDejPFFgnhrzzbx9-90" target="jtV1YDejPFFgnhrzzbx9-95">
          <mxGeometry relative="1" as="geometry" />
        </mxCell>
        <mxCell id="jtV1YDejPFFgnhrzzbx9-90" value="" style="rhombus;whiteSpace=wrap;html=1;" vertex="1" parent="1">
          <mxGeometry x="260" y="875" width="80" height="40" as="geometry" />
        </mxCell>
        <mxCell id="jtV1YDejPFFgnhrzzbx9-91" value="Играч2" style="rhombus;whiteSpace=wrap;html=1;" vertex="1" parent="1">
          <mxGeometry x="389.38" y="881.5600000000001" width="61.25" height="26.88" as="geometry" />
        </mxCell>
        <mxCell id="jtV1YDejPFFgnhrzzbx9-94" value="Играч1" style="rhombus;whiteSpace=wrap;html=1;" vertex="1" parent="1">
          <mxGeometry x="270" y="880" width="60" height="30" as="geometry" />
        </mxCell>
        <mxCell id="jtV1YDejPFFgnhrzzbx9-104" value="" style="edgeStyle=orthogonalEdgeStyle;rounded=0;orthogonalLoop=1;jettySize=auto;html=1;endArrow=none;endFill=0;" edge="1" parent="1" source="jtV1YDejPFFgnhrzzbx9-95" target="jtV1YDejPFFgnhrzzbx9-103">
          <mxGeometry relative="1" as="geometry" />
        </mxCell>
        <mxCell id="jtV1YDejPFFgnhrzzbx9-95" value="" style="whiteSpace=wrap;html=1;" vertex="1" parent="1">
          <mxGeometry x="305" y="955" width="120" height="60" as="geometry" />
        </mxCell>
        <mxCell id="jtV1YDejPFFgnhrzzbx9-98" value="Head2Head" style="whiteSpace=wrap;html=1;" vertex="1" parent="1">
          <mxGeometry x="317.5" y="965" width="95" height="40" as="geometry" />
        </mxCell>
        <mxCell id="jtV1YDejPFFgnhrzzbx9-99" value="1" style="text;html=1;align=center;verticalAlign=middle;resizable=0;points=[];autosize=1;strokeColor=none;fillColor=none;" vertex="1" parent="1">
          <mxGeometry x="300" y="848" width="30" height="30" as="geometry" />
        </mxCell>
        <mxCell id="jtV1YDejPFFgnhrzzbx9-100" value="1" style="text;html=1;align=center;verticalAlign=middle;resizable=0;points=[];autosize=1;strokeColor=none;fillColor=none;" vertex="1" parent="1">
          <mxGeometry x="414" y="851.56" width="30" height="30" as="geometry" />
        </mxCell>
        <mxCell id="jtV1YDejPFFgnhrzzbx9-101" value="N" style="text;html=1;align=center;verticalAlign=middle;resizable=0;points=[];autosize=1;strokeColor=none;fillColor=none;" vertex="1" parent="1">
          <mxGeometry x="415" y="913" width="30" height="30" as="geometry" />
        </mxCell>
        <mxCell id="jtV1YDejPFFgnhrzzbx9-102" value="N" style="text;html=1;align=center;verticalAlign=middle;resizable=0;points=[];autosize=1;strokeColor=none;fillColor=none;" vertex="1" parent="1">
          <mxGeometry x="275" y="923" width="30" height="30" as="geometry" />
        </mxCell>
        <mxCell id="jtV1YDejPFFgnhrzzbx9-103" value="победи_играч1" style="ellipse;whiteSpace=wrap;html=1;" vertex="1" parent="1">
          <mxGeometry x="460" y="943" width="105" height="40" as="geometry" />
        </mxCell>
        <mxCell id="jtV1YDejPFFgnhrzzbx9-105" value="" style="edgeStyle=orthogonalEdgeStyle;rounded=0;orthogonalLoop=1;jettySize=auto;html=1;endArrow=none;endFill=0;" edge="1" target="jtV1YDejPFFgnhrzzbx9-106" parent="1">
          <mxGeometry relative="1" as="geometry">
            <mxPoint x="425" y="1014.5" as="sourcePoint" />
            <Array as="points">
              <mxPoint x="425" y="1005" />
            </Array>
          </mxGeometry>
        </mxCell>
        <mxCell id="jtV1YDejPFFgnhrzzbx9-106" value="победи_играч2" style="ellipse;whiteSpace=wrap;html=1;" vertex="1" parent="1">
          <mxGeometry x="460" y="993" width="105" height="40" as="geometry" />
        </mxCell>
        <mxCell id="jtV1YDejPFFgnhrzzbx9-110" value="" style="edgeStyle=orthogonalEdgeStyle;rounded=0;orthogonalLoop=1;jettySize=auto;html=1;endArrow=none;endFill=0;" edge="1" parent="1" source="jtV1YDejPFFgnhrzzbx9-107" target="jtV1YDejPFFgnhrzzbx9-109">
          <mxGeometry relative="1" as="geometry" />
        </mxCell>
        <mxCell id="jtV1YDejPFFgnhrzzbx9-112" value="" style="edgeStyle=orthogonalEdgeStyle;rounded=0;orthogonalLoop=1;jettySize=auto;html=1;endArrow=none;endFill=0;" edge="1" parent="1" source="jtV1YDejPFFgnhrzzbx9-107" target="jtV1YDejPFFgnhrzzbx9-111">
          <mxGeometry relative="1" as="geometry" />
        </mxCell>
        <mxCell id="jtV1YDejPFFgnhrzzbx9-114" value="" style="rounded=0;orthogonalLoop=1;jettySize=auto;html=1;endArrow=none;endFill=0;" edge="1" parent="1" source="jtV1YDejPFFgnhrzzbx9-107" target="jtV1YDejPFFgnhrzzbx9-113">
          <mxGeometry relative="1" as="geometry" />
        </mxCell>
        <mxCell id="jtV1YDejPFFgnhrzzbx9-115" value="" style="edgeStyle=orthogonalEdgeStyle;rounded=0;orthogonalLoop=1;jettySize=auto;html=1;endArrow=none;endFill=0;" edge="1" parent="1" source="jtV1YDejPFFgnhrzzbx9-107" target="jtV1YDejPFFgnhrzzbx9-109">
          <mxGeometry relative="1" as="geometry" />
        </mxCell>
        <mxCell id="jtV1YDejPFFgnhrzzbx9-117" value="" style="rounded=0;orthogonalLoop=1;jettySize=auto;html=1;endArrow=none;endFill=0;" edge="1" parent="1" source="jtV1YDejPFFgnhrzzbx9-107" target="jtV1YDejPFFgnhrzzbx9-116">
          <mxGeometry relative="1" as="geometry" />
        </mxCell>
        <mxCell id="jtV1YDejPFFgnhrzzbx9-107" value="Датум" style="ellipse;whiteSpace=wrap;html=1;" vertex="1" parent="1">
          <mxGeometry x="-195" y="998" width="80" height="35" as="geometry" />
        </mxCell>
        <mxCell id="jtV1YDejPFFgnhrzzbx9-109" value="Година" style="ellipse;whiteSpace=wrap;html=1;" vertex="1" parent="1">
          <mxGeometry x="-195" y="953" width="80" height="35" as="geometry" />
        </mxCell>
        <mxCell id="jtV1YDejPFFgnhrzzbx9-111" value="Време" style="ellipse;whiteSpace=wrap;html=1;" vertex="1" parent="1">
          <mxGeometry x="-310" y="998.75" width="80" height="35" as="geometry" />
        </mxCell>
        <mxCell id="jtV1YDejPFFgnhrzzbx9-113" value="Ден" style="ellipse;whiteSpace=wrap;html=1;" vertex="1" parent="1">
          <mxGeometry x="-275" y="1052.5" width="80" height="35" as="geometry" />
        </mxCell>
        <mxCell id="jtV1YDejPFFgnhrzzbx9-116" value="Месец" style="ellipse;whiteSpace=wrap;html=1;" vertex="1" parent="1">
          <mxGeometry x="-170" y="1060" width="80" height="35" as="geometry" />
        </mxCell>
        <mxCell id="jtV1YDejPFFgnhrzzbx9-217" style="edgeStyle=orthogonalEdgeStyle;rounded=0;orthogonalLoop=1;jettySize=auto;html=1;entryX=0.764;entryY=1.011;entryDx=0;entryDy=0;endArrow=none;endFill=0;exitX=1;exitY=0.5;exitDx=0;exitDy=0;entryPerimeter=0;" edge="1" parent="1" target="jtV1YDejPFFgnhrzzbx9-207">
          <mxGeometry relative="1" as="geometry">
            <mxPoint x="977" y="1104.99" as="sourcePoint" />
            <mxPoint x="1025.2849999999999" y="657.9" as="targetPoint" />
            <Array as="points">
              <mxPoint x="1025" y="1105" />
            </Array>
          </mxGeometry>
        </mxCell>
        <mxCell id="jtV1YDejPFFgnhrzzbx9-118" value="" style="rhombus;whiteSpace=wrap;html=1;" vertex="1" parent="1">
          <mxGeometry x="851.5" y="1065" width="130" height="60" as="geometry" />
        </mxCell>
        <mxCell id="jtV1YDejPFFgnhrzzbx9-120" style="rounded=0;orthogonalLoop=1;jettySize=auto;html=1;entryX=0;entryY=0.5;entryDx=0;entryDy=0;" edge="1" parent="1" source="jtV1YDejPFFgnhrzzbx9-118" target="jtV1YDejPFFgnhrzzbx9-118">
          <mxGeometry relative="1" as="geometry" />
        </mxCell>
        <mxCell id="jtV1YDejPFFgnhrzzbx9-121" value="N" style="text;html=1;align=center;verticalAlign=middle;resizable=0;points=[];autosize=1;strokeColor=none;fillColor=none;" vertex="1" parent="1">
          <mxGeometry x="827" y="1103" width="30" height="30" as="geometry" />
        </mxCell>
        <mxCell id="jtV1YDejPFFgnhrzzbx9-122" value="Се_одржува" style="rhombus;whiteSpace=wrap;html=1;" vertex="1" parent="1">
          <mxGeometry x="861" y="1077.25" width="111" height="35.5" as="geometry" />
        </mxCell>
        <mxCell id="jtV1YDejPFFgnhrzzbx9-130" value="" style="rounded=0;orthogonalLoop=1;jettySize=auto;html=1;shape=link;" edge="1" parent="1" source="jtV1YDejPFFgnhrzzbx9-123" target="jtV1YDejPFFgnhrzzbx9-129">
          <mxGeometry relative="1" as="geometry" />
        </mxCell>
        <mxCell id="jtV1YDejPFFgnhrzzbx9-123" value="" style="rhombus;whiteSpace=wrap;html=1;" vertex="1" parent="1">
          <mxGeometry x="470" y="710" width="85" height="33.44" as="geometry" />
        </mxCell>
        <mxCell id="jtV1YDejPFFgnhrzzbx9-125" value="Има" style="rhombus;whiteSpace=wrap;html=1;" vertex="1" parent="1">
          <mxGeometry x="477.5" y="712.5" width="70" height="28.44" as="geometry" />
        </mxCell>
        <mxCell id="jtV1YDejPFFgnhrzzbx9-145" value="" style="edgeStyle=orthogonalEdgeStyle;rounded=0;orthogonalLoop=1;jettySize=auto;html=1;shape=link;" edge="1" parent="1" source="jtV1YDejPFFgnhrzzbx9-129" target="jtV1YDejPFFgnhrzzbx9-144">
          <mxGeometry relative="1" as="geometry" />
        </mxCell>
        <mxCell id="jtV1YDejPFFgnhrzzbx9-129" value="" style="whiteSpace=wrap;html=1;" vertex="1" parent="1">
          <mxGeometry x="585" y="816.8399999999999" width="120" height="60" as="geometry" />
        </mxCell>
        <mxCell id="jtV1YDejPFFgnhrzzbx9-131" value="ранг_историја" style="whiteSpace=wrap;html=1;" vertex="1" parent="1">
          <mxGeometry x="595" y="828.4799999999999" width="100" height="36.72" as="geometry" />
        </mxCell>
        <mxCell id="jtV1YDejPFFgnhrzzbx9-132" value="1" style="text;html=1;align=center;verticalAlign=middle;resizable=0;points=[];autosize=1;strokeColor=none;fillColor=none;" vertex="1" parent="1">
          <mxGeometry x="555" y="841.56" width="30" height="30" as="geometry" />
        </mxCell>
        <mxCell id="jtV1YDejPFFgnhrzzbx9-133" value="1" style="text;html=1;align=center;verticalAlign=middle;resizable=0;points=[];autosize=1;strokeColor=none;fillColor=none;" vertex="1" parent="1">
          <mxGeometry x="422.5" y="618" width="30" height="30" as="geometry" />
        </mxCell>
        <mxCell id="jtV1YDejPFFgnhrzzbx9-139" value="" style="rounded=0;orthogonalLoop=1;jettySize=auto;html=1;shape=link;" edge="1" parent="1" source="jtV1YDejPFFgnhrzzbx9-136" target="jtV1YDejPFFgnhrzzbx9-138">
          <mxGeometry relative="1" as="geometry" />
        </mxCell>
        <mxCell id="jtV1YDejPFFgnhrzzbx9-136" value="Рангиран" style="rhombus;whiteSpace=wrap;html=1;" vertex="1" parent="1">
          <mxGeometry x="690" y="710" width="80" height="40" as="geometry" />
        </mxCell>
        <mxCell id="jtV1YDejPFFgnhrzzbx9-141" value="" style="edgeStyle=orthogonalEdgeStyle;rounded=0;orthogonalLoop=1;jettySize=auto;html=1;endArrow=none;endFill=0;" edge="1" parent="1" source="jtV1YDejPFFgnhrzzbx9-138" target="jtV1YDejPFFgnhrzzbx9-140">
          <mxGeometry relative="1" as="geometry" />
        </mxCell>
        <mxCell id="jtV1YDejPFFgnhrzzbx9-143" value="" style="edgeStyle=orthogonalEdgeStyle;rounded=0;orthogonalLoop=1;jettySize=auto;html=1;endArrow=none;endFill=0;" edge="1" parent="1" source="jtV1YDejPFFgnhrzzbx9-138" target="jtV1YDejPFFgnhrzzbx9-142">
          <mxGeometry relative="1" as="geometry" />
        </mxCell>
        <mxCell id="jtV1YDejPFFgnhrzzbx9-138" value="Ранг" style="whiteSpace=wrap;html=1;" vertex="1" parent="1">
          <mxGeometry x="875" y="813.56" width="120" height="60" as="geometry" />
        </mxCell>
        <mxCell id="jtV1YDejPFFgnhrzzbx9-140" value="&lt;u&gt;Ранг&lt;/u&gt;" style="ellipse;whiteSpace=wrap;html=1;" vertex="1" parent="1">
          <mxGeometry x="895" y="758" width="80" height="40" as="geometry" />
        </mxCell>
        <mxCell id="jtV1YDejPFFgnhrzzbx9-142" value="Тип" style="ellipse;whiteSpace=wrap;html=1;" vertex="1" parent="1">
          <mxGeometry x="895" y="891.56" width="80" height="30" as="geometry" />
        </mxCell>
        <mxCell id="jtV1YDejPFFgnhrzzbx9-152" value="" style="rounded=0;orthogonalLoop=1;jettySize=auto;html=1;endArrow=none;endFill=0;" edge="1" parent="1" source="jtV1YDejPFFgnhrzzbx9-144" target="jtV1YDejPFFgnhrzzbx9-151">
          <mxGeometry relative="1" as="geometry" />
        </mxCell>
        <mxCell id="jtV1YDejPFFgnhrzzbx9-144" value="Содржи&amp;nbsp;" style="rhombus;whiteSpace=wrap;html=1;" vertex="1" parent="1">
          <mxGeometry x="742" y="828.4799999999999" width="80" height="36.72" as="geometry" />
        </mxCell>
        <mxCell id="jtV1YDejPFFgnhrzzbx9-146" style="edgeStyle=orthogonalEdgeStyle;rounded=0;orthogonalLoop=1;jettySize=auto;html=1;entryX=0.009;entryY=0.57;entryDx=0;entryDy=0;entryPerimeter=0;endArrow=none;endFill=0;shape=link;" edge="1" parent="1" source="jtV1YDejPFFgnhrzzbx9-144" target="jtV1YDejPFFgnhrzzbx9-138">
          <mxGeometry relative="1" as="geometry" />
        </mxCell>
        <mxCell id="jtV1YDejPFFgnhrzzbx9-148" value="M" style="text;html=1;align=center;verticalAlign=middle;resizable=0;points=[];autosize=1;strokeColor=none;fillColor=none;" vertex="1" parent="1">
          <mxGeometry x="850" y="761.56" width="30" height="30" as="geometry" />
        </mxCell>
        <mxCell id="jtV1YDejPFFgnhrzzbx9-149" value="M" style="text;html=1;align=center;verticalAlign=middle;resizable=0;points=[];autosize=1;strokeColor=none;fillColor=none;" vertex="1" parent="1">
          <mxGeometry x="845" y="846.8399999999999" width="30" height="30" as="geometry" />
        </mxCell>
        <mxCell id="jtV1YDejPFFgnhrzzbx9-150" value="N" style="text;html=1;align=center;verticalAlign=middle;resizable=0;points=[];autosize=1;strokeColor=none;fillColor=none;" vertex="1" parent="1">
          <mxGeometry x="710" y="841.56" width="30" height="30" as="geometry" />
        </mxCell>
        <mxCell id="jtV1YDejPFFgnhrzzbx9-151" value="почетен_датум" style="ellipse;whiteSpace=wrap;html=1;" vertex="1" parent="1">
          <mxGeometry x="633.5" y="923.56" width="103" height="40" as="geometry" />
        </mxCell>
        <mxCell id="jtV1YDejPFFgnhrzzbx9-154" value="" style="rounded=0;orthogonalLoop=1;jettySize=auto;html=1;exitX=0.69;exitY=0.783;exitDx=0;exitDy=0;exitPerimeter=0;endArrow=none;endFill=0;" edge="1" target="jtV1YDejPFFgnhrzzbx9-155" parent="1" source="jtV1YDejPFFgnhrzzbx9-144">
          <mxGeometry relative="1" as="geometry">
            <mxPoint x="882.5" y="860.56" as="sourcePoint" />
          </mxGeometry>
        </mxCell>
        <mxCell id="jtV1YDejPFFgnhrzzbx9-155" value="краен_датум" style="ellipse;whiteSpace=wrap;html=1;" vertex="1" parent="1">
          <mxGeometry x="765" y="931.56" width="103" height="40" as="geometry" />
        </mxCell>
        <mxCell id="jtV1YDejPFFgnhrzzbx9-159" value="" style="rounded=0;orthogonalLoop=1;jettySize=auto;html=1;endArrow=none;endFill=0;" edge="1" parent="1" source="jtV1YDejPFFgnhrzzbx9-157" target="jtV1YDejPFFgnhrzzbx9-158">
          <mxGeometry relative="1" as="geometry" />
        </mxCell>
        <mxCell id="jtV1YDejPFFgnhrzzbx9-162" value="" style="edgeStyle=orthogonalEdgeStyle;rounded=0;orthogonalLoop=1;jettySize=auto;html=1;endArrow=none;endFill=0;" edge="1" parent="1" source="jtV1YDejPFFgnhrzzbx9-157" target="jtV1YDejPFFgnhrzzbx9-161">
          <mxGeometry relative="1" as="geometry" />
        </mxCell>
        <mxCell id="jtV1YDejPFFgnhrzzbx9-157" value="Најдобар_играч" style="rhombus;whiteSpace=wrap;html=1;" vertex="1" parent="1">
          <mxGeometry x="520" y="500" width="120" height="50" as="geometry" />
        </mxCell>
        <mxCell id="jtV1YDejPFFgnhrzzbx9-158" value="Победи" style="ellipse;whiteSpace=wrap;html=1;" vertex="1" parent="1">
          <mxGeometry x="612.5" y="580" width="80" height="38" as="geometry" />
        </mxCell>
        <mxCell id="jtV1YDejPFFgnhrzzbx9-160" value="1" style="text;html=1;align=center;verticalAlign=middle;resizable=0;points=[];autosize=1;strokeColor=none;fillColor=none;" vertex="1" parent="1">
          <mxGeometry x="465" y="548" width="30" height="30" as="geometry" />
        </mxCell>
        <mxCell id="jtV1YDejPFFgnhrzzbx9-165" value="" style="edgeStyle=orthogonalEdgeStyle;rounded=0;orthogonalLoop=1;jettySize=auto;html=1;endArrow=none;endFill=0;" edge="1" parent="1" source="jtV1YDejPFFgnhrzzbx9-161" target="jtV1YDejPFFgnhrzzbx9-164">
          <mxGeometry relative="1" as="geometry">
            <Array as="points">
              <mxPoint x="770" y="570" />
              <mxPoint x="770" y="570" />
            </Array>
          </mxGeometry>
        </mxCell>
        <mxCell id="jtV1YDejPFFgnhrzzbx9-168" value="" style="edgeStyle=orthogonalEdgeStyle;rounded=0;orthogonalLoop=1;jettySize=auto;html=1;endArrow=none;endFill=0;" edge="1" parent="1" source="jtV1YDejPFFgnhrzzbx9-161" target="jtV1YDejPFFgnhrzzbx9-167">
          <mxGeometry relative="1" as="geometry" />
        </mxCell>
        <mxCell id="jtV1YDejPFFgnhrzzbx9-170" value="" style="rounded=0;orthogonalLoop=1;jettySize=auto;html=1;endArrow=none;endFill=0;" edge="1" parent="1" source="jtV1YDejPFFgnhrzzbx9-161" target="jtV1YDejPFFgnhrzzbx9-169">
          <mxGeometry relative="1" as="geometry" />
        </mxCell>
        <mxCell id="jtV1YDejPFFgnhrzzbx9-172" value="" style="edgeStyle=orthogonalEdgeStyle;rounded=0;orthogonalLoop=1;jettySize=auto;html=1;endArrow=none;endFill=0;" edge="1" parent="1" source="jtV1YDejPFFgnhrzzbx9-161" target="jtV1YDejPFFgnhrzzbx9-171">
          <mxGeometry relative="1" as="geometry" />
        </mxCell>
        <mxCell id="jtV1YDejPFFgnhrzzbx9-161" value="турнир" style="whiteSpace=wrap;html=1;" vertex="1" parent="1">
          <mxGeometry x="725" y="507.5" width="90" height="35" as="geometry" />
        </mxCell>
        <mxCell id="jtV1YDejPFFgnhrzzbx9-163" value="N" style="text;html=1;align=center;verticalAlign=middle;resizable=0;points=[];autosize=1;strokeColor=none;fillColor=none;" vertex="1" parent="1">
          <mxGeometry x="695" y="518" width="30" height="30" as="geometry" />
        </mxCell>
        <mxCell id="jtV1YDejPFFgnhrzzbx9-208" value="" style="edgeStyle=orthogonalEdgeStyle;rounded=0;orthogonalLoop=1;jettySize=auto;html=1;endArrow=none;endFill=0;" edge="1" parent="1" source="jtV1YDejPFFgnhrzzbx9-164" target="jtV1YDejPFFgnhrzzbx9-207">
          <mxGeometry relative="1" as="geometry" />
        </mxCell>
        <mxCell id="jtV1YDejPFFgnhrzzbx9-164" value="Одржува" style="rhombus;whiteSpace=wrap;html=1;" vertex="1" parent="1">
          <mxGeometry x="730" y="600" width="80" height="40" as="geometry" />
        </mxCell>
        <mxCell id="jtV1YDejPFFgnhrzzbx9-166" value="N" style="text;html=1;align=center;verticalAlign=middle;resizable=0;points=[];autosize=1;strokeColor=none;fillColor=none;" vertex="1" parent="1">
          <mxGeometry x="765" y="578" width="30" height="30" as="geometry" />
        </mxCell>
        <mxCell id="jtV1YDejPFFgnhrzzbx9-167" value="&lt;u&gt;Име&lt;/u&gt;" style="ellipse;whiteSpace=wrap;html=1;" vertex="1" parent="1">
          <mxGeometry x="730" y="447.5" width="80" height="30" as="geometry" />
        </mxCell>
        <mxCell id="jtV1YDejPFFgnhrzzbx9-169" value="Тип" style="ellipse;whiteSpace=wrap;html=1;" vertex="1" parent="1">
          <mxGeometry x="820" y="446.25" width="80" height="32.5" as="geometry" />
        </mxCell>
        <mxCell id="jtV1YDejPFFgnhrzzbx9-171" value="" style="rhombus;whiteSpace=wrap;html=1;" vertex="1" parent="1">
          <mxGeometry x="909.5" y="500" width="80" height="50" as="geometry" />
        </mxCell>
        <mxCell id="jtV1YDejPFFgnhrzzbx9-176" value="" style="edgeStyle=orthogonalEdgeStyle;rounded=0;orthogonalLoop=1;jettySize=auto;html=1;shape=link;" edge="1" parent="1" source="jtV1YDejPFFgnhrzzbx9-174" target="jtV1YDejPFFgnhrzzbx9-175">
          <mxGeometry relative="1" as="geometry" />
        </mxCell>
        <mxCell id="jtV1YDejPFFgnhrzzbx9-174" value="Одржува" style="rhombus;whiteSpace=wrap;html=1;" vertex="1" parent="1">
          <mxGeometry x="915" y="505" width="70" height="40" as="geometry" />
        </mxCell>
        <mxCell id="jtV1YDejPFFgnhrzzbx9-188" value="" style="edgeStyle=orthogonalEdgeStyle;rounded=0;orthogonalLoop=1;jettySize=auto;html=1;shape=link;" edge="1" parent="1" source="jtV1YDejPFFgnhrzzbx9-175" target="jtV1YDejPFFgnhrzzbx9-187">
          <mxGeometry relative="1" as="geometry" />
        </mxCell>
        <mxCell id="jtV1YDejPFFgnhrzzbx9-175" value="" style="whiteSpace=wrap;html=1;" vertex="1" parent="1">
          <mxGeometry x="1130" y="495" width="120" height="60" as="geometry" />
        </mxCell>
        <mxCell id="jtV1YDejPFFgnhrzzbx9-180" value="" style="rounded=0;orthogonalLoop=1;jettySize=auto;html=1;endArrow=none;endFill=0;" edge="1" parent="1" source="jtV1YDejPFFgnhrzzbx9-177" target="jtV1YDejPFFgnhrzzbx9-179">
          <mxGeometry relative="1" as="geometry" />
        </mxCell>
        <mxCell id="jtV1YDejPFFgnhrzzbx9-177" value="Одржан_турнир" style="whiteSpace=wrap;html=1;" vertex="1" parent="1">
          <mxGeometry x="1135" y="497.5" width="110" height="55" as="geometry" />
        </mxCell>
        <mxCell id="jtV1YDejPFFgnhrzzbx9-178" value="N" style="text;html=1;align=center;verticalAlign=middle;resizable=0;points=[];autosize=1;strokeColor=none;fillColor=none;" vertex="1" parent="1">
          <mxGeometry x="1075" y="528" width="30" height="30" as="geometry" />
        </mxCell>
        <mxCell id="jtV1YDejPFFgnhrzzbx9-179" value="Спонзори" style="ellipse;whiteSpace=wrap;html=1;" vertex="1" parent="1">
          <mxGeometry x="1150" y="440" width="80" height="45" as="geometry" />
        </mxCell>
        <mxCell id="jtV1YDejPFFgnhrzzbx9-183" value="" style="rounded=0;orthogonalLoop=1;jettySize=auto;html=1;endArrow=none;endFill=0;" edge="1" target="jtV1YDejPFFgnhrzzbx9-184" parent="1">
          <mxGeometry relative="1" as="geometry">
            <mxPoint x="1190" y="560" as="sourcePoint" />
          </mxGeometry>
        </mxCell>
        <mxCell id="jtV1YDejPFFgnhrzzbx9-184" value="Датум_од" style="ellipse;whiteSpace=wrap;html=1;" vertex="1" parent="1">
          <mxGeometry x="1150" y="585" width="80" height="45" as="geometry" />
        </mxCell>
        <mxCell id="jtV1YDejPFFgnhrzzbx9-185" value="" style="rounded=0;orthogonalLoop=1;jettySize=auto;html=1;endArrow=none;endFill=0;" edge="1" target="jtV1YDejPFFgnhrzzbx9-186" parent="1">
          <mxGeometry relative="1" as="geometry">
            <mxPoint x="1220" y="560" as="sourcePoint" />
          </mxGeometry>
        </mxCell>
        <mxCell id="jtV1YDejPFFgnhrzzbx9-186" value="Датум_до" style="ellipse;whiteSpace=wrap;html=1;" vertex="1" parent="1">
          <mxGeometry x="1250" y="568" width="80" height="32" as="geometry" />
        </mxCell>
        <mxCell id="jtV1YDejPFFgnhrzzbx9-192" value="" style="edgeStyle=orthogonalEdgeStyle;rounded=0;orthogonalLoop=1;jettySize=auto;html=1;shape=link;" edge="1" parent="1" source="jtV1YDejPFFgnhrzzbx9-187">
          <mxGeometry relative="1" as="geometry">
            <mxPoint x="1490" y="525" as="targetPoint" />
          </mxGeometry>
        </mxCell>
        <mxCell id="jtV1YDejPFFgnhrzzbx9-187" value="" style="rhombus;whiteSpace=wrap;html=1;" vertex="1" parent="1">
          <mxGeometry x="1350" y="497.5" width="80" height="55" as="geometry" />
        </mxCell>
        <mxCell id="jtV1YDejPFFgnhrzzbx9-189" value="игра" style="rhombus;whiteSpace=wrap;html=1;" vertex="1" parent="1">
          <mxGeometry x="1355" y="505" width="70" height="40" as="geometry" />
        </mxCell>
        <mxCell id="jtV1YDejPFFgnhrzzbx9-190" value="1" style="text;html=1;align=center;verticalAlign=middle;resizable=0;points=[];autosize=1;strokeColor=none;fillColor=none;" vertex="1" parent="1">
          <mxGeometry x="1250" y="498" width="30" height="30" as="geometry" />
        </mxCell>
        <mxCell id="jtV1YDejPFFgnhrzzbx9-194" value="N" style="text;html=1;align=center;verticalAlign=middle;resizable=0;points=[];autosize=1;strokeColor=none;fillColor=none;" vertex="1" parent="1">
          <mxGeometry x="1425" y="450" width="30" height="30" as="geometry" />
        </mxCell>
        <mxCell id="jtV1YDejPFFgnhrzzbx9-195" value="N" style="text;html=1;align=center;verticalAlign=middle;resizable=0;points=[];autosize=1;strokeColor=none;fillColor=none;" vertex="1" parent="1">
          <mxGeometry x="1455" y="528" width="30" height="30" as="geometry" />
        </mxCell>
        <mxCell id="jtV1YDejPFFgnhrzzbx9-196" value="" style="rhombus;whiteSpace=wrap;html=1;" vertex="1" parent="1">
          <mxGeometry x="1420" y="653.38" width="80" height="47.5" as="geometry" />
        </mxCell>
        <mxCell id="jtV1YDejPFFgnhrzzbx9-198" value="Играат" style="rhombus;whiteSpace=wrap;html=1;" vertex="1" parent="1">
          <mxGeometry x="1427.5" y="662.38" width="65" height="29.5" as="geometry" />
        </mxCell>
        <mxCell id="jtV1YDejPFFgnhrzzbx9-200" style="rounded=0;orthogonalLoop=1;jettySize=auto;html=1;entryX=0.063;entryY=0.411;entryDx=0;entryDy=0;entryPerimeter=0;endArrow=none;endFill=0;" edge="1" parent="1" source="jtV1YDejPFFgnhrzzbx9-27" target="jtV1YDejPFFgnhrzzbx9-196">
          <mxGeometry relative="1" as="geometry">
            <Array as="points">
              <mxPoint x="930" y="720" />
            </Array>
          </mxGeometry>
        </mxCell>
        <mxCell id="jtV1YDejPFFgnhrzzbx9-201" style="rounded=0;orthogonalLoop=1;jettySize=auto;html=1;entryX=0.327;entryY=0.164;entryDx=0;entryDy=0;entryPerimeter=0;endArrow=none;endFill=0;" edge="1" parent="1" source="jtV1YDejPFFgnhrzzbx9-27" target="jtV1YDejPFFgnhrzzbx9-196">
          <mxGeometry relative="1" as="geometry">
            <Array as="points">
              <mxPoint x="930" y="700" />
            </Array>
          </mxGeometry>
        </mxCell>
        <mxCell id="jtV1YDejPFFgnhrzzbx9-202" value="1" style="text;html=1;align=center;verticalAlign=middle;resizable=0;points=[];autosize=1;strokeColor=none;fillColor=none;" vertex="1" parent="1">
          <mxGeometry x="1410" y="627.88" width="30" height="30" as="geometry" />
        </mxCell>
        <mxCell id="jtV1YDejPFFgnhrzzbx9-205" value="1" style="text;html=1;align=center;verticalAlign=middle;resizable=0;points=[];autosize=1;strokeColor=none;fillColor=none;" vertex="1" parent="1">
          <mxGeometry x="1380" y="662.88" width="30" height="30" as="geometry" />
        </mxCell>
        <mxCell id="jtV1YDejPFFgnhrzzbx9-211" value="" style="edgeStyle=orthogonalEdgeStyle;rounded=0;orthogonalLoop=1;jettySize=auto;html=1;endArrow=none;endFill=0;" edge="1" parent="1" source="jtV1YDejPFFgnhrzzbx9-207" target="jtV1YDejPFFgnhrzzbx9-210">
          <mxGeometry relative="1" as="geometry" />
        </mxCell>
        <mxCell id="jtV1YDejPFFgnhrzzbx9-207" value="Терен" style="whiteSpace=wrap;html=1;" vertex="1" parent="1">
          <mxGeometry x="960" y="618" width="85" height="30" as="geometry" />
        </mxCell>
        <mxCell id="jtV1YDejPFFgnhrzzbx9-210" value="Тип" style="ellipse;whiteSpace=wrap;html=1;" vertex="1" parent="1">
          <mxGeometry x="967.5" y="558" width="70" height="40" as="geometry" />
        </mxCell>
        <mxCell id="jtV1YDejPFFgnhrzzbx9-212" value="Седишта" style="ellipse;whiteSpace=wrap;html=1;" vertex="1" parent="1">
          <mxGeometry x="1055" y="580" width="70" height="40" as="geometry" />
        </mxCell>
        <mxCell id="jtV1YDejPFFgnhrzzbx9-213" value="" style="rounded=0;orthogonalLoop=1;jettySize=auto;html=1;endArrow=none;endFill=0;exitX=1;exitY=0.5;exitDx=0;exitDy=0;" edge="1" target="jtV1YDejPFFgnhrzzbx9-212" parent="1" source="jtV1YDejPFFgnhrzzbx9-207">
          <mxGeometry relative="1" as="geometry">
            <mxPoint x="1095.5" y="630" as="sourcePoint" />
          </mxGeometry>
        </mxCell>
        <mxCell id="jtV1YDejPFFgnhrzzbx9-214" value="&lt;u&gt;Име&lt;/u&gt;" style="ellipse;whiteSpace=wrap;html=1;" vertex="1" parent="1">
          <mxGeometry x="868" y="552.5" width="70" height="40" as="geometry" />
        </mxCell>
        <mxCell id="jtV1YDejPFFgnhrzzbx9-215" value="" style="rounded=0;orthogonalLoop=1;jettySize=auto;html=1;endArrow=none;endFill=0;exitX=0;exitY=0;exitDx=0;exitDy=0;" edge="1" target="jtV1YDejPFFgnhrzzbx9-214" parent="1" source="jtV1YDejPFFgnhrzzbx9-207">
          <mxGeometry relative="1" as="geometry">
            <mxPoint x="904.5" y="635" as="sourcePoint" />
          </mxGeometry>
        </mxCell>
        <mxCell id="jtV1YDejPFFgnhrzzbx9-216" value="M" style="text;html=1;align=center;verticalAlign=middle;resizable=0;points=[];autosize=1;strokeColor=none;fillColor=none;" vertex="1" parent="1">
          <mxGeometry x="920" y="605" width="30" height="30" as="geometry" />
        </mxCell>
        <mxCell id="jtV1YDejPFFgnhrzzbx9-218" value="1" style="text;html=1;align=center;verticalAlign=middle;resizable=0;points=[];autosize=1;strokeColor=none;fillColor=none;" vertex="1" parent="1">
          <mxGeometry x="977" y="1065" width="30" height="30" as="geometry" />
        </mxCell>
        <mxCell id="jtV1YDejPFFgnhrzzbx9-219" value="1" style="text;html=1;align=center;verticalAlign=middle;resizable=0;points=[];autosize=1;strokeColor=none;fillColor=none;" vertex="1" parent="1">
          <mxGeometry x="815" y="498" width="30" height="30" as="geometry" />
        </mxCell>
      </root>
    </mxGraphModel>
  </diagram>
</mxfile>
